<?xml version="1.0" encoding="UTF-8"?>
<svg id="Calque_2" data-name="Calque 2" xmlns="http://www.w3.org/2000/svg" viewBox="0 0 20.85 19.97">
  <defs>
    <style>
      .cls-1 {
        fill: #e3a120;
        stroke: #000;
        stroke-linecap: round;
        stroke-linejoin: round;
        stroke-width: 1px;
      }
    </style>
  </defs>
  <g id="Calque_1-2" data-name="Calque 1">
    <path class="cls-1" d="M9.71,1.82c.23-.47.35-.7.5-.78.14-.06.29-.06.43,0,.16.07.27.31.5.78l2.19,4.43c.07.14.1.21.15.26.04.05.1.09.16.11.07.03.14.04.29.06l4.89.71c.52.08.77.11.89.24.1.11.15.26.13.41-.02.17-.21.35-.58.72l-3.54,3.45c-.11.11-.17.16-.2.23-.03.06-.05.12-.06.18,0,.07,0,.15.03.3l.83,4.87c.09.51.13.77.05.92-.07.13-.2.23-.35.25-.17.03-.4-.09-.86-.33l-4.37-2.3c-.14-.07-.2-.11-.28-.12-.06-.01-.13-.01-.19,0-.07.01-.14.05-.28.12l-4.37,2.3c-.46.24-.69.36-.86.33-.15-.03-.28-.12-.35-.25-.08-.15-.04-.41.05-.92l.83-4.87c.03-.15.04-.23.03-.3,0-.06-.03-.13-.06-.18-.04-.06-.09-.12-.2-.23l-3.54-3.45c-.37-.36-.56-.54-.58-.72-.02-.15.03-.3.13-.41.12-.13.38-.16.89-.24l4.89-.71c.15-.02.23-.03.29-.06.06-.03.11-.07.16-.11.05-.05.08-.12.15-.26l2.19-4.43Z"/>
  </g>
</svg>